<?xml version="1.0" encoding="utf-8"?>
<!-- Generator: Adobe Illustrator 19.0.0, SVG Export Plug-In . SVG Version: 6.00 Build 0)  -->
<svg version="1.1" id="Camada_1" xmlns="http://www.w3.org/2000/svg" xmlns:xlink="http://www.w3.org/1999/xlink" x="0px" y="0px"
	 viewBox="0 0 900 460" style="enable-background:new 0 0 900 460;" xml:space="preserve">
<style type="text/css">
	.st0{fill:#2F5489;}
	.st1{fill:#2E5489;}
	.st2{fill:#FFFFFF;}
</style>
<g id="XMLID_1_">
	<path id="XMLID_46_" class="st0" d="M310.8,369.8c-3.8-0.2-6.7,2.4-10.1,3.5c-5,1.6-9.5,0.8-13-2.4c-7.7-7-15.1-14.2-19-24.4
		c-2.5-6.6-1.5-12.6,0.4-18.8c0.4-1.3,1.8-2.6,0.7-4.2c-10.2,7.1-16.3,4.6-24.3-3c-5.6-5.3-11-11-11.8-19.4c-0.5-4.4-0.4-8.5,2.3-13
		c-6.3,0-12.2,0-18,0c-2.6,0-4,0.4-3.1-3.6c7.9-38,15.9-75.9,23-114.1c3.8-20.2,8.3-40.3,10.4-60.8c0.3-3,1.4-4,4.3-3.5
		c1.1,0.2,2.4,0,3.5,0.3c5.7,1.6,10.7,0.4,15.4-3c16.3-11.8,32.8-23.3,49.9-33.9c25.2-15.6,51.6-28.8,79.6-38.6
		c6.5-2.3,13.1-0.5,19.6,0.7c20.3,3.6,39.7,10.3,59.1,17c3.6,1.2,6.6,1.4,10.3-0.1c7.2-2.8,14.7-4.6,22.5-5.5
		c11.8-1.4,20.9,5.1,30.7,9.7c21.9,10.3,43.1,21.8,63,35.6c8.8,6.1,17.8,12.2,25.3,19.9c5.7,5.9,12.2,7.7,19.7,7
		c4.7-0.4,6.5,0,7.3,5.7c2.7,18.4,6.4,36.6,9.9,54.8c5.2,26.8,10.5,53.5,15.8,80.3c1.7,8.5,3.8,17,5.7,25.6
		c-3.6,0.9-7.2,0.8-10.5,0.9c-4.3,0.1-3.6,1.9-3.2,4.6c4.9,30.6-8.1,56-36,69.8c-1.6,0.8-3.5,2.1-5.1,1.8c-6.1-0.9-6.4,3.4-7.8,7.5
		c-6.8,20.6-21.1,33.2-41.8,39c-4.9,1.4-9.6,0.8-14.1-0.8c-2.8-1-4,0-5.4,2.4c-8.3,14.3-20.3,23.8-36.9,26.5
		c-8.9,1.4-16.6-2.7-24.6-5.6c-0.2-0.1-0.3-0.2-0.4-0.3c-5-3.2-8.8-3.5-13.9,1.3c-13.1,12.3-28.8,11-44.6,5.9
		c-6.1-1.9-12-4.2-18-6.6c-3.2-1.3-5.2-1.1-6.9,2.6c-3.9,8.3-10.7,13.4-20,12.9c-14.6-0.7-25.4-8.5-33.2-20.4
		c-2.2-3.3-2.2-7.5-0.4-11.4c0.8-1.7,1.3-3.6,2.3-6c-1.5,0.8-2.5,1.1-3.1,1.7c-8.4,7.9-18,8.2-28.4,4.8c-9.1-3-17-8.1-24.1-14.2
		c-6.8-5.9-7.9-17-3.3-24.8c0.5-0.8,1-1.7,1.4-2.6c0.3-0.5,0.6-0.9,0.9-1.4C311.9,368.8,311.2,369,310.8,369.8z M484.1,417.4
		c-7.7-5.4-15-10.4-22.3-15.6c-6.2-4.4-12.3-9-18.5-13.3c-2.6-1.8-3.1-4.5-2-6.5c1.6-2.8,3.3,0.4,4.7,1.1c3.2,1.6,6.2,3.7,9.3,5.6
		c16.5,10.3,32.8,20.9,50.6,28.9c9.8,4.4,19.8,5.8,30,1.4c7.6-3.3,12.5-9.4,17.6-15.5c3.2-3.8,2-4.9-1.7-6.8
		c-6.8-3.6-13.4-7.7-19.9-11.9c-23.7-15.3-47.1-31-69.1-48.8c-1.2-1-4.4-1.4-3.2-4c1.3-2.7,3.8-2.6,6.2-0.9c0.1,0.1,0.3,0.1,0.4,0.2
		c25.2,11.7,47.5,28.3,71.4,42.2c11.5,6.7,22.7,14,35.6,17.7c2.9,0.8,5.7,2.2,9.1,1.2c16.3-4.5,26.5-15.4,33.1-30.3
		c1-2.2,0.9-3.9-1.9-5.1c-17.5-7.3-33.8-17-49.8-27.2c-21.6-13.7-42-29-62.5-44.6c2.3-2.6,4.5-3.7,7.8-1.7c2.8,1.7,6,2.6,8.9,4.1
		C534.8,296,550,307,566,316.4c18.9,11.2,38.1,22,59.2,28.8c3.4,1.1,6.5,1.1,9.5-0.5c13.9-7.1,24.5-17.6,27.9-33
		c2.9-13.4,2.9-20.1-9.5-26.8c-21.6-11.7-42.7-24.2-62.8-38.4c-28.6-20.1-54.8-42.8-78.4-68.5c-9.7-10.6-18.8-21.7-24.9-35
		c-1.6-3.4-2-5,2.1-6.7c5.2-2.2,9.4-6,12.3-11.1c4.4-7.5,6.2-15.9,8.6-24.1c0.3-1,1-2.8-1.1-3.2c-2-0.5-2.1,1.4-2.6,2.4
		c-2.2,4.4-4.1,8.9-6.2,13.4c-3.1,6.6-8,11.4-14.8,14.6c-12.1,5.7-25.4,6.4-38.1,9.5c-2.2,0.5-1.9-1-1.7-2.4
		c0.6-3.4,1.2-6.8,1.5-10.3c0.1-1.1,0.9-2.8-1.1-3.3c-2.2-0.5-1.9,1.5-2.2,2.5c-2,6.8-5.5,13-8.6,19.3
		c-7.5,15.3-17.7,28.1-33.6,35.2c-15.6,6.9-32.1,8.9-49,5.9c-6.8-1.2-13.3-3.9-18.8-8.2c-4.9-3.7-7.4-9.5-3.3-15.9
		c7.3-11.3,15.5-21.8,24.3-31.9c10.5-12.1,21-24.2,28.8-38.4c4.2-7.6,10.4-12.3,18.4-15.6c11.3-4.6,23.5-6,35-9.8
		c8.6-2.9,17.4-5.4,27.2-8.4c-2.4-0.6-3.5-0.8-4.6-1.1c-14-4.2-27.9-8.8-42.4-11.1c-4.7-0.7-9.5-2.5-14.6-0.5
		c-13,5.2-25.9,10.4-38.4,16.6c-26.9,13.4-52,29.7-76.4,47.2c-7.8,5.6-15,12.7-25.8,12.2c-2.1-0.1-1.7,1.5-1.9,2.7
		c-4.7,25-9.2,50.1-14,75.1c-4.3,22.1-8.9,44.2-13.6,66.2c-2.1,10-2.4,9.7,7.8,11.1c5.1,0.7,9.9,1.8,14.1-2.6
		c3.2-3.4,7.6-5.3,11.7-7.3c4.9-2.5,10-2.8,15.3-1.2c14.6,4.5,19,16.4,10.4,28.8c-5.1,7.3-10.4,14.5-15.7,21.6
		c-1.1,1.5-3.5,3-1.2,4.9c2.4,2,3.4-1.1,4.6-2.3c9.9-9.7,19.4-19.7,29.4-29.2c8.3-7.9,16.7-16,29.8-13.9c8.9,1.4,16.3,4.3,20.9,12.9
		c4.3,7.9,0.3,13.8-3.7,19.4c-13,18.3-26.6,36.1-39.8,54.3c-1,1.4-4.8,2.9-1.6,5.4c2.7,2,2.4-2.1,4-2.7c0.6-0.2,1-0.9,1.4-1.4
		c9.5-10.2,19.1-20.4,28.6-30.6c7.7-8.3,15.1-16.8,23-24.8c4.4-4.5,9.3-8.5,16.7-7.8c18.4,1.8,28.3,29.1,21.3,42.7
		c-7.6,15-17.6,28.2-27.2,41.8c-3.6,5.1-7.4,10.1-11,15.2c-0.4,0.6-2.1,1.6-0.3,2.8c1.1,0.7,2,0.9,3-0.3c0.7-0.9,1.6-1.7,2.5-2.5
		c8.9-8.5,16.7-18.2,26.5-25.7c3.6-2.8,7.3-5.6,12.5-4.7c8.5,1.4,17.4,10,19.7,18.3c2.7,9.6-0.9,17.9-4.9,26.1c-1.4,2.8-1,4,1.9,4.9
		c5.3,1.7,10.5,3.8,15.8,5.4C460.5,426.3,472.9,427.1,484.1,417.4z"/>
	<path id="XMLID_45_" class="st1" d="M812.6,43.6c3.5-0.3,2.8,3,3.1,4.2c2.8,14,6.6,27.8,9.9,41.7c3.9,16.5,7.6,33,11.5,49.4
		c8.9,37.7,17.9,75.4,26.9,113c2.6,10.7,5.2,21.3,7.8,32c0.8,3.1,0.6,5-3.3,6.1c-31.3,9.3-62.5,18.8-93.7,28.3
		c-2.8,0.9-4.1,0.9-5.1-2.7C760.2,279.5,752,243,743,206.8c-5.7-22.9-11.7-45.8-17.2-68.7c-4.9-20.4-9.1-40.9-13.8-61.3
		c-0.7-2.9,0.1-3.9,2.9-4.7c24.5-7.1,49-14.3,73.5-21.5C796.4,48.2,804.5,45.9,812.6,43.6z"/>
	<path id="XMLID_44_" class="st1" d="M193,64.7c-2.1,9.9-3.9,19.5-6.2,29.1c-7.2,30-14.5,60-21.8,89.9c-6.8,27.7-13.7,55.4-20.5,83
		c-3.2,12.8-6.3,25.5-9.5,38.3c-0.7,2.8-1.2,4.5-5.2,3.3c-31.5-9.7-63.1-19.1-94.7-28.6c-1.7-0.5-3.2-0.8-2.5-4
		c7.9-33.7,16-67.4,24.1-101.1C67.1,132,76.9,89.2,87,46.4c0.2-1,0.6-1.9,0.8-2.8c0.6-3.5,0.6-5.7,3-10c0.9-1.6,6.3,1.5,9.6,2.4
		c29.6,8.7,59.1,17.3,88.7,26.1C190.7,62.5,193.1,62.2,193,64.7z"/>
	<path id="XMLID_43_" class="st0" d="M704.9,100.2c1.6,0.2,1.8,1.5,2.1,2.8c4.8,25,11.1,49.6,17.2,74.3
		c8.7,35.5,17.7,70.9,26.6,106.4c0.3,1.1,0.1,2.3,0.4,3.5c1.7,8.7,1.8,8.8-6.6,10.7c-12.5,2.8-25.1,5.2-37.5,8.2
		c-3.8,0.9-4.3-0.8-4.9-3.5c-2.7-13.2-5.4-26.4-8.1-39.6c-5.6-27.6-11.3-55.1-16.7-82.7c-3.4-17.4-6.3-35-9.4-52.4
		c-0.8-4.7-1.8-9.3-2.7-14c-0.4-2-0.7-4.1,2.1-4.7c12.2-2.8,24.4-5.6,36.5-8.4C704.2,100.7,704.5,100.4,704.9,100.2z"/>
	<path id="XMLID_42_" class="st0" d="M239.1,103.8c-2.1,12.2-4.2,24.9-6.6,37.5c-5.8,30-11.6,59.9-17.6,89.8
		c-4.2,20.9-8.6,41.8-12.9,62.7c-0.5,2.3-1.2,2.9-3.7,2.3c-14.7-3.4-29.5-6.5-44.2-9.8c-1.5-0.3-3.5,0.2-2.6-3.2
		c6.4-25,12.4-50,18.6-75.1c6.2-24.8,12.6-49.6,18.6-74.5c3.1-12.9,5.7-26,8.5-39c0.6-3,1.3-4.7,5.2-3.7c11.6,3,23.2,5.6,34.9,8.2
		C240.3,99.8,238.7,101.9,239.1,103.8z"/>
	<path id="XMLID_40_" class="st2" d="M310.8,369.8c0.5-0.8,1.1-1,1.9-0.5c-0.3,0.5-0.6,0.9-0.9,1.4
		C311.4,370.3,311.1,370.1,310.8,369.8z"/>
</g>
</svg>
