<?xml version="1.0" encoding="utf-8"?>
<!-- Generator: Adobe Illustrator 19.0.0, SVG Export Plug-In . SVG Version: 6.00 Build 0)  -->
<svg version="1.1"
	 id="svg2243" xmlns:rdf="http://www.w3.org/1999/02/22-rdf-syntax-ns#" xmlns:sodipodi="http://sodipodi.sourceforge.net/DTD/sodipodi-0.dtd" xmlns:dc="http://purl.org/dc/elements/1.1/" xmlns:cc="http://creativecommons.org/ns#" xmlns:inkscape="http://www.inkscape.org/namespaces/inkscape" xmlns:svg="http://www.w3.org/2000/svg" sodipodi:docname="paie_big.svg" inkscape:version="0.92.4 (unknown)"
	 xmlns="http://www.w3.org/2000/svg" xmlns:xlink="http://www.w3.org/1999/xlink" x="0px" y="0px" viewBox="107 -19 230 55"
	 style="enable-background:new 107 -19 230 55;" xml:space="preserve">
<style type="text/css">
	.st0{fill:#FFFFFF;}
</style>
<sodipodi:namedview  pagecolor="#ffffff" inkscape:cx="113.6658" borderopacity="1.0" bordercolor="#666666" id="base" showgrid="false" inkscape:cy="10.660164" units="px" inkscape:zoom="5.6568542" inkscape:pageopacity="0.0" inkscape:pageshadow="2" inkscape:document-units="px" inkscape:window-width="1920" inkscape:window-maximized="1" inkscape:current-layer="layer1" inkscape:window-x="0" inkscape:window-height="1025" inkscape:window-y="27">
	</sodipodi:namedview>
<g id="XMLID_1_">
	<path id="XMLID_46_" class="st0" d="M151.3,20.6c-0.4,0-0.6,0.2-1,0.3c-0.5,0.2-0.9,0.1-1.2-0.2c-0.8-0.7-1.4-1.4-1.8-2.3
		c-0.2-0.6-0.2-1.2,0-1.7c0-0.2,0.2-0.2,0.1-0.4c-1,0.7-1.5,0.5-2.3-0.3c-0.5-0.5-1.1-1.1-1.1-1.8c-0.1-0.4,0-0.8,0.2-1.2
		c-0.6,0-1.1,0-1.7,0c-0.2,0-0.4,0-0.3-0.3c0.8-3.6,1.5-7.1,2.2-10.8c0.4-1.9,0.8-3.8,1-5.7c0-0.3,0.2-0.4,0.4-0.3
		c0.1,0,0.2,0,0.3,0c0.5,0.2,1,0,1.4-0.3c1.5-1.1,3.1-2.2,4.7-3.2c2.4-1.4,4.9-2.7,7.5-3.6c0.6-0.2,1.2-0.1,1.8,0.1
		c1.9,0.3,3.7,1,5.6,1.6c0.3,0.1,0.6,0.2,1,0c0.7-0.2,1.4-0.5,2.1-0.5c1.1-0.2,2,0.5,2.9,0.9c2.1,1,4,2.1,5.9,3.3
		c0.8,0.6,1.7,1.1,2.4,1.9c0.5,0.5,1.1,0.8,1.8,0.7c0.5,0,0.6,0,0.7,0.5c0.2,1.7,0.6,3.4,0.9,5.2c0.5,2.5,1,5,1.5,7.6
		c0.2,0.8,0.4,1.6,0.5,2.4c-0.3,0.1-0.7,0.1-1,0.1c-0.4,0-0.3,0.2-0.3,0.5c0.5,2.9-0.8,5.3-3.4,6.6c-0.2,0.1-0.3,0.2-0.5,0.2
		c-0.6-0.1-0.6,0.3-0.8,0.7c-0.6,2-2,3.1-4,3.6c-0.5,0.2-0.9,0.1-1.3-0.1c-0.2-0.1-0.4,0-0.5,0.2c-0.8,1.4-1.9,2.3-3.5,2.5
		c-0.8,0.2-1.6-0.2-2.4-0.5l0,0c-0.5-0.3-0.8-0.3-1.3,0.2c-1.2,1.1-2.7,1.1-4.2,0.5c-0.6-0.2-1.1-0.4-1.7-0.6
		c-0.3-0.2-0.5-0.1-0.7,0.2c-0.4,0.8-1,1.3-1.9,1.2c-1.4-0.1-2.4-0.8-3.1-1.9c-0.2-0.3-0.2-0.7,0-1.1c0.1-0.2,0.2-0.3,0.2-0.5
		c-0.2,0.1-0.2,0.1-0.3,0.2c-0.8,0.8-1.7,0.8-2.7,0.5c-0.8-0.3-1.6-0.8-2.3-1.4c-0.6-0.5-0.8-1.6-0.3-2.4c0.1-0.1,0.1-0.2,0.2-0.2
		C151.3,20.7,151.4,20.7,151.3,20.6C151.5,20.5,151.4,20.5,151.3,20.6z M167.7,25.1c-0.8-0.5-1.4-1-2.1-1.4
		c-0.6-0.4-1.1-0.8-1.7-1.3c-0.2-0.2-0.3-0.5-0.2-0.6c0.2-0.2,0.3,0,0.5,0.1c0.3,0.2,0.6,0.4,0.9,0.5c1.5,1,3.1,2,4.8,2.7
		c0.9,0.4,1.9,0.5,2.8,0.2c0.7-0.3,1.2-0.9,1.7-1.4c0.3-0.4,0.2-0.5-0.2-0.6c-0.6-0.3-1.3-0.8-1.9-1.1c-2.2-1.4-4.4-2.9-6.5-4.6
		c-0.1-0.1-0.4-0.2-0.3-0.4c0.2-0.2,0.4-0.2,0.6-0.1l0,0c2.4,1.1,4.5,2.7,6.8,4c1.1,0.6,2.1,1.3,3.3,1.7c0.3,0.1,0.5,0.2,0.8,0.1
		c1.5-0.5,2.5-1.4,3.1-2.9c0.1-0.2,0.1-0.4-0.2-0.5c-1.7-0.7-3.2-1.6-4.7-2.6c-2.1-1.3-4-2.7-5.9-4.2c0.2-0.2,0.5-0.4,0.8-0.2
		c0.2,0.2,0.5,0.2,0.8,0.4c1.6,0.8,3,1.8,4.6,2.7c1.7,1.1,3.6,2.1,5.6,2.7c0.3,0.1,0.6,0.1,0.9-0.1c1.3-0.7,2.3-1.7,2.7-3.1
		c0.3-1.3,0.3-1.9-0.9-2.5c-2.1-1.1-4-2.3-5.9-3.6c-2.7-1.9-5.2-4-7.4-6.5c-0.9-1-1.7-2.1-2.4-3.3c-0.2-0.3-0.2-0.5,0.2-0.6
		c0.5-0.2,0.9-0.5,1.1-1.1c0.4-0.7,0.6-1.5,0.8-2.3c0-0.1,0.1-0.2-0.1-0.3c-0.2-0.1-0.2,0.2-0.2,0.2c-0.2,0.4-0.4,0.8-0.6,1.3
		c-0.3,0.6-0.8,1.1-1.4,1.4c-1.1,0.5-2.4,0.6-3.6,0.9c-0.2,0.1-0.2-0.1-0.2-0.2c0.1-0.3,0.1-0.6,0.2-1c0-0.1,0.1-0.2-0.1-0.3
		c-0.2-0.1-0.2,0.2-0.2,0.2c-0.2,0.6-0.5,1.2-0.8,1.8c-0.7,1.4-1.7,2.7-3.2,3.3c-1.4,0.7-3,0.8-4.6,0.5c-0.6-0.1-1.3-0.4-1.7-0.8
		c-0.5-0.4-0.7-0.9-0.3-1.5c0.7-1.1,1.4-2.1,2.3-3c1-1.1,2-2.3,2.7-3.6c0.4-0.7,1-1.1,1.7-1.4c1.1-0.5,2.2-0.5,3.3-0.9
		c0.8-0.3,1.7-0.5,2.6-0.8c-0.2-0.1-0.3-0.1-0.5-0.1c-1.3-0.4-2.7-0.8-4-1.1c-0.5-0.1-0.9-0.2-1.4-0.1c-1.2,0.5-2.4,1-3.6,1.6
		c-2.5,1.3-4.9,2.8-7.2,4.5c-0.8,0.5-1.4,1.2-2.4,1.1c-0.2,0-0.2,0.2-0.2,0.2c-0.5,2.4-0.8,4.7-1.3,7.1c-0.4,2.1-0.8,4.2-1.3,6.2
		c-0.2,0.9-0.2,0.9,0.8,1.1c0.5,0.1,0.9,0.2,1.3-0.2c0.3-0.3,0.7-0.5,1.1-0.7c0.5-0.2,0.9-0.2,1.4-0.1c1.4,0.5,1.8,1.5,1,2.7
		c-0.5,0.7-1,1.4-1.4,2.1c-0.1,0.2-0.3,0.3-0.1,0.5c0.2,0.2,0.3-0.1,0.5-0.2c0.9-0.9,1.8-1.8,2.7-2.7c0.8-0.8,1.6-1.5,2.8-1.3
		c0.8,0.2,1.5,0.4,2,1.2c0.4,0.8,0,1.3-0.4,1.8c-1.2,1.7-2.5,3.4-3.7,5.1c-0.1,0.2-0.5,0.3-0.2,0.5c0.2,0.2,0.2-0.2,0.4-0.2
		c0.1,0,0.1-0.1,0.2-0.2c0.9-1,1.8-1.9,2.7-2.9c0.8-0.8,1.4-1.6,2.2-2.4c0.4-0.5,0.9-0.8,1.6-0.8c1.7,0.2,2.7,2.7,2,4
		c-0.7,1.4-1.7,2.7-2.6,4c-0.3,0.5-0.7,1-1.1,1.4c0,0.1-0.2,0.2,0,0.2c0.1,0.1,0.2,0.1,0.3,0c0.1-0.1,0.2-0.2,0.2-0.2
		c0.8-0.8,1.6-1.7,2.5-2.4c0.3-0.2,0.7-0.5,1.2-0.5c0.8,0.2,1.7,0.9,1.8,1.7c0.2,0.9-0.1,1.7-0.5,2.4c-0.2,0.2-0.1,0.4,0.2,0.5
		c0.5,0.2,1,0.4,1.5,0.5C165.5,25.9,166.7,26,167.7,25.1z"/>
	<path id="XMLID_45_" class="st0" d="M198.7-10.2c0.3,0,0.2,0.3,0.3,0.4c0.2,1.3,0.6,2.7,0.9,4c0.4,1.5,0.7,3.1,1.1,4.6
		c0.8,3.6,1.7,7.1,2.5,10.6c0.2,1,0.5,2,0.8,3c0.1,0.3,0.1,0.5-0.3,0.6c-3,0.9-5.9,1.7-8.8,2.7c-0.2,0.1-0.4,0.1-0.5-0.2
		c-0.9-3.4-1.7-6.8-2.5-10.3c-0.5-2.1-1.1-4.3-1.6-6.5c-0.5-1.9-0.8-3.9-1.3-5.8c-0.1-0.3,0-0.4,0.3-0.5c2.3-0.7,4.6-1.4,6.9-2.1
		C197.2-9.7,197.9-10,198.7-10.2z"/>
	<path id="XMLID_44_" class="st0" d="M140.2-8.2c-0.2,0.9-0.4,1.8-0.6,2.7c-0.7,2.8-1.4,5.6-2.1,8.5c-0.6,2.6-1.3,5.2-1.9,7.8
		c-0.3,1.2-0.6,2.4-0.9,3.6c-0.1,0.2-0.1,0.5-0.5,0.3c-3-0.9-5.9-1.8-9-2.7c-0.2-0.1-0.3-0.1-0.2-0.4c0.8-3.2,1.5-6.4,2.3-9.5
		c1-4,1.9-8.1,2.9-12.1c0-0.1,0.1-0.2,0.1-0.2c0.1-0.3,0.1-0.5,0.3-0.9c0.1-0.2,0.6,0.2,0.9,0.2c2.8,0.8,5.6,1.6,8.4,2.4
		C140-8.4,140.2-8.5,140.2-8.2z"/>
	<path id="XMLID_43_" class="st0" d="M188.6-4.9c0.2,0,0.2,0.2,0.2,0.2c0.5,2.4,1.1,4.7,1.6,7c0.8,3.3,1.7,6.7,2.5,10
		c0,0.1,0,0.2,0,0.3c0.2,0.8,0.2,0.8-0.6,1c-1.2,0.2-2.4,0.5-3.6,0.8c-0.4,0.1-0.4-0.1-0.5-0.3c-0.2-1.2-0.5-2.5-0.8-3.7
		c-0.5-2.6-1.1-5.2-1.6-7.8c-0.3-1.7-0.6-3.3-0.9-4.9c-0.1-0.5-0.2-0.9-0.2-1.3c0-0.2-0.1-0.4,0.2-0.5c1.1-0.2,2.3-0.5,3.4-0.8
		C188.5-4.8,188.5-4.8,188.6-4.9z"/>
	<path id="XMLID_42_" class="st0" d="M144.6-4.5c-0.2,1.1-0.4,2.4-0.6,3.6c-0.5,2.8-1.1,5.6-1.7,8.4c-0.4,2-0.8,4-1.2,5.9
		c-0.1,0.2-0.1,0.3-0.4,0.2c-1.4-0.3-2.8-0.6-4.2-0.9c-0.2,0-0.3,0-0.2-0.3c0.6-2.4,1.1-4.7,1.7-7.1s1.2-4.7,1.7-7
		c0.3-1.2,0.5-2.4,0.8-3.6c0.1-0.3,0.2-0.5,0.5-0.4c1.1,0.3,2.2,0.5,3.3,0.8C144.7-4.9,144.6-4.7,144.6-4.5z"/>
	<path id="XMLID_40_" class="st0" d="M151.3,20.6c0.1-0.1,0.1-0.1,0.2-0.1C151.5,20.6,151.4,20.6,151.3,20.6
		C151.4,20.7,151.4,20.6,151.3,20.6z"/>
</g>
<g>
	<path class="st0" d="M223.6-5.7c1.6-0.3,3.9-0.5,6-0.5c3.4,0,5.6,0.6,7.1,2c1.2,1.1,2,2.8,2,4.7c0,3.2-2,5.3-4.6,6.2v0.1
		c1.9,0.6,3,2.4,3.6,5c0.8,3.5,1.4,5.8,1.9,6.8h-3.3c-0.4-0.7-1-2.8-1.6-5.9c-0.7-3.4-2-4.6-5-4.8h-3v10.7h-3.2V-5.7H223.6z
		 M226.8,5.5h3.2c3.4,0,5.5-1.9,5.5-4.6c0-3.2-2.3-4.5-5.7-4.5c-1.5,0-2.6,0.1-3.1,0.3L226.8,5.5L226.8,5.5z"/>
	<path class="st0" d="M255.9,7.1h-9.5v8.9h10.7v2.7h-13.9V-5.9h13.3v2.7h-10.1v7.7h9.5V7.1z"/>
	<path class="st0" d="M261.1-6h13.2v2.7h-10v8.2h9.2v2.7h-9.2v11.1h-3.2V-6L261.1-6z"/>
	<path class="st0" d="M282-6v24.5h-3.2V-6H282z"/>
	<path class="st0" d="M287.2,14.7c1.4,0.9,3.5,1.6,5.7,1.6c3.2,0,5.2-1.7,5.2-4.2c0-2.2-1.3-3.6-4.6-4.9c-4-1.4-6.5-3.6-6.5-7
		c0-3.8,3.2-6.7,7.9-6.7c2.5,0,4.4,0.6,5.4,1.2l-0.9,2.6c-0.8-0.4-2.4-1.2-4.6-1.2c-3.4,0-4.6,2-4.6,3.6c0,2.3,1.5,3.5,4.9,4.7
		c4.2,1.6,6.2,3.6,6.2,7.2c0,3.8-2.8,7.1-8.5,7.1c-2.4,0-5-0.7-6.3-1.6L287.2,14.7z"/>
</g>
</svg>
